<?xml version="1.0" encoding="utf-8"?>
<!-- Generator: Adobe Illustrator 21.0.0, SVG Export Plug-In . SVG Version: 6.00 Build 0)  -->
<svg version="1.1" id="Layer_1" xmlns="http://www.w3.org/2000/svg" xmlns:xlink="http://www.w3.org/1999/xlink" x="0px" y="0px"
	 viewBox="0 0 60 60" style="enable-background:new 0 0 60 60;" xml:space="preserve">
<style type="text/css">
	.st0{fill:#2C70AF;}
</style>
<g>
	<g>
		<g>
			<circle class="st0" cx="22" cy="52.2" r="4.9"/>
			<circle class="st0" cx="47.1" cy="52.2" r="4.9"/>
		</g>
		<path class="st0" d="M54.8,48.3H10.6V12.6H2.5c-1.2,0-2.2-1-2.2-2.2c0-1.2,1-2.2,2.2-2.2h12.6v35.7h39.7c1.2,0,2.2,1,2.2,2.2
			C57,47.3,56,48.3,54.8,48.3z"/>
		<path class="st0" d="M57.3,40.4H14c-1.2,0-2.2-1-2.2-2.2c0-1.2,1-2.2,2.2-2.2h39.2l1.7-17.2H14.5c-1.2,0-2.2-1-2.2-2.2
			c0-1.2,1-2.2,2.2-2.2h45.3L57.3,40.4z"/>
	</g>
	<path class="st0" d="M21.9,40.3c-1.2,0-2.2-1-2.2-2.2l-0.2-20.2c0-1.2,1-2.2,2.2-2.2c1.2,0,2.2,1,2.2,2.2l0.2,20.2
		C24.1,39.3,23.2,40.3,21.9,40.3C21.9,40.3,21.9,40.3,21.9,40.3z"/>
	<path class="st0" d="M30.4,40.3C30.4,40.3,30.3,40.3,30.4,40.3c-1.3,0-2.2-1-2.2-2.2l0.2-20.2c0-1.2,1-2.2,2.2-2.2c0,0,0,0,0,0
		c1.2,0,2.2,1,2.2,2.2l-0.2,20.2C32.6,39.3,31.6,40.3,30.4,40.3z"/>
	<path class="st0" d="M38.4,40.3C38.4,40.3,38.4,40.3,38.4,40.3c-1.3,0-2.2-1-2.2-2.2l0.2-20.2c0-1.2,1-2.2,2.3-2.2
		c1.2,0,2.2,1,2.2,2.2l-0.2,20.2C40.6,39.3,39.6,40.3,38.4,40.3z"/>
	<path class="st0" d="M46.4,40.3c0,0-0.1,0-0.1,0c-1.2-0.1-2.2-1.1-2.1-2.3l1.1-20.2c0.1-1.2,1.1-2.2,2.3-2.1
		c1.2,0.1,2.2,1.1,2.1,2.3l-1.1,20.2C48.5,39.4,47.5,40.3,46.4,40.3z"/>
</g>
</svg>
